<?xml version="1.0" encoding="iso-8859-1"?>
<!-- Generator: Adobe Illustrator 21.0.0, SVG Export Plug-In . SVG Version: 6.00 Build 0)  -->
<svg xmlns="http://www.w3.org/2000/svg" xmlns:xlink="http://www.w3.org/1999/xlink" version="1.1" id="Capa_1" x="0px" y="0px" viewBox="0 0 512.001 512.001" style="enable-background:new 0 0 512.001 512.001;" xml:space="preserve" width="40" height="40">
<g>
	<path fill="#fff" d="M105.904,265.705l-18.281,54.846c-1.793,5.396-0.394,11.331,3.625,15.35l84.853,84.853   c4.017,4.019,9.954,5.418,15.35,3.625l54.846-18.281L105.904,265.705z"/>
	<path fill="#fff" d="M282.167,420.753c-7.35,7.348-13.262,8.89-17.589,10.876l-40.787,13.594l-9.366,48.835   c-0.994,4.971,0.59,10.036,4.102,13.548c4.874,4.874,12.424,5.797,18.323,2.249l106.066-65.64   c5.427-3.252,8.234-9.582,6.993-15.797L337.34,365.58L282.167,420.753z"/>
	<path fill="#fff" d="M17.943,297.577l48.835-9.368l14.174-42.506c3.384-7.075,4.757-10.329,10.296-15.868l55.173-55.173l-62.838-12.568   c-6.216-1.243-12.545,1.564-15.797,6.993L2.146,275.152c-3.065,5.096-2.827,11.506,0.591,16.355   C6.286,296.504,12.268,298.712,17.943,297.577z"/>
	<path fill="#fff" d="M486.39,4.397l-27.438,27.44c-55.051,0.035-90.547,0.855-128.536,19.893c1.3,33.424,14.854,66.105,39.304,90.553   c24.529,24.529,57.025,37.971,90.61,39.186c18.979-37.945,19.799-73.427,19.834-128.417l27.442-27.442   c5.861-5.861,5.861-15.35,0-21.213C501.741-1.466,492.253-1.466,486.39,4.397z"/>
	<ellipse transform="matrix(0.7071 -0.7071 0.7071 0.7071 -90.4795 262.4458)" cx="271.56" cy="240.441" rx="15" ry="15"/>
	<path fill="#fff" d="M302.239,68.799c-17.759,12.629-37.053,29.524-59.8,52.271L123.066,240.442l148.493,148.491l119.372-119.37   c22.582-22.582,39.413-41.766,52.013-59.418c-35.136-4.783-68.45-20.66-94.44-46.65   C322.545,137.537,307.016,103.937,302.239,68.799z M303.379,272.26c-17.547,17.547-46.093,17.547-63.64,0   c-17.545-17.545-17.545-46.093,0-63.638c17.547-17.547,46.093-17.547,63.64,0C320.926,226.167,320.926,254.715,303.379,272.26z"/>
	<path fill="#fff" d="M41.974,385.174C24.905,402.243,8.03,444.434,0.179,494.691c-0.734,4.733,0.829,9.529,4.217,12.916   s8.183,4.951,12.916,4.215c50.246-7.841,92.435-24.715,109.516-41.795c10.803-10.803,16.384-24.749,17.212-38.915L80.89,367.962   C66.723,368.79,52.778,374.371,41.974,385.174z"/>
</g>















</svg>
